<svg width="218" height="246" viewBox="0 0 218 246" fill="none" xmlns="http://www.w3.org/2000/svg">
<path d="M0.1875 235.75C0.1875 241.388 4.8 246 10.4375 246H133.437C139.075 246 143.687 241.388 143.687 235.75V205C143.687 210.638 139.075 215.25 133.437 215.25H10.4375C4.8 215.25 0.1875 210.638 0.1875 205V235.75Z" fill="url(#paint0_linear_5320_6535)"/>
<path d="M133.437 0H10.4375C4.8 0 0.1875 4.6125 0.1875 10.25V205C0.1875 210.637 4.8 215.25 10.4375 215.25H133.437C139.075 215.25 143.687 210.637 143.687 205V10.25C143.687 4.6125 139.075 0 133.437 0Z" fill="url(#paint1_linear_5320_6535)"/>
<path opacity="0.7" d="M71.9375 23.0625C73.3527 23.0625 74.5 21.9152 74.5 20.5C74.5 19.0848 73.3527 17.9375 71.9375 17.9375C70.5223 17.9375 69.375 19.0848 69.375 20.5C69.375 21.9152 70.5223 23.0625 71.9375 23.0625Z" stroke="white" stroke-width="2" stroke-miterlimit="10" stroke-linecap="round"/>
<path d="M217.061 136.18C216.2 128.493 210.171 122.301 202.421 121.233C197.899 120.593 193.593 121.661 190.364 124.009C188.857 124.863 187.135 123.796 187.135 122.301V91.1261C187.135 88.7773 185.197 86.8555 182.829 86.8555H147.305C145.582 86.8555 144.506 84.9338 145.582 83.6526C147.951 80.2362 149.027 76.1792 148.381 71.6951C147.305 64.2217 141.061 58.0293 133.31 57.1752C122.976 56.1075 114.149 64.0081 114.149 74.0439C114.149 77.6739 115.225 80.8768 117.163 83.6526C118.024 85.1473 116.948 86.8555 115.441 86.8555H79.4861C77.1179 86.8555 75.1802 88.7773 75.1802 91.1261V122.088C75.1802 123.796 73.2425 124.863 71.9507 123.796C68.506 121.447 64.4154 120.379 59.8942 121.02C52.3588 122.088 46.1151 128.28 45.2539 135.967C44.1774 146.216 52.1434 154.971 62.2624 154.971C65.9224 154.971 69.1519 153.903 71.9507 151.981C73.4578 151.127 75.1802 152.195 75.1802 153.69V184.651C75.1802 187 77.1179 188.922 79.4861 188.922H116.302C118.024 188.922 119.101 187.213 118.24 185.719C116.517 182.729 115.656 179.099 116.517 175.256C117.594 169.277 122.33 164.579 128.359 163.512C138.047 161.59 146.443 168.85 146.443 178.245C146.443 181.021 145.797 183.583 144.29 185.719C143.429 187.213 144.506 188.922 146.228 188.922H182.829C185.197 188.922 187.135 187 187.135 184.651V153.69C187.135 151.981 189.072 150.914 190.364 151.981C193.163 153.903 196.392 154.971 200.052 154.971C210.171 155.184 218.353 146.43 217.061 136.18Z" fill="url(#paint2_linear_5320_6535)"/>
<path opacity="0.7" d="M131.176 139.882C132.064 139.882 132.784 138.983 132.784 137.873C132.784 136.763 132.064 135.863 131.176 135.863C130.288 135.863 129.568 136.763 129.568 137.873C129.568 138.983 130.288 139.882 131.176 139.882Z" stroke="white" stroke-width="2" stroke-miterlimit="10" stroke-linecap="round"/>
<path opacity="0.7" d="M113.893 139.882C115.003 139.882 115.902 138.983 115.902 137.873C115.902 136.763 115.003 135.863 113.893 135.863C112.783 135.863 111.883 136.763 111.883 137.873C111.883 138.983 112.783 139.882 113.893 139.882Z" stroke="white" stroke-width="2" stroke-miterlimit="10" stroke-linecap="round"/>
<path opacity="0.7" d="M148.461 139.882C149.571 139.882 150.471 138.983 150.471 137.873C150.471 136.763 149.571 135.863 148.461 135.863C147.351 135.863 146.451 136.763 146.451 137.873C146.451 138.983 147.351 139.882 148.461 139.882Z" stroke="white" stroke-width="2" stroke-miterlimit="10" stroke-linecap="round"/>
<defs>
<linearGradient id="paint0_linear_5320_6535" x1="158.459" y1="236.072" x2="-18.9413" y2="213.125" gradientUnits="userSpaceOnUse">
<stop stop-color="white" stop-opacity="0"/>
<stop offset="1" stop-color="white"/>
</linearGradient>
<linearGradient id="paint1_linear_5320_6535" x1="158.133" y1="143.58" x2="-37.1615" y2="62.1155" gradientUnits="userSpaceOnUse">
<stop stop-color="white" stop-opacity="0"/>
<stop offset="1" stop-color="white"/>
</linearGradient>
<linearGradient id="paint2_linear_5320_6535" x1="158.448" y1="193.02" x2="87.0943" y2="47.0562" gradientUnits="userSpaceOnUse">
<stop stop-color="white" stop-opacity="0"/>
<stop offset="1" stop-color="white"/>
</linearGradient>
</defs>
</svg>
