<svg width="510" height="197" viewBox="0 0 510 197" fill="none" xmlns="http://www.w3.org/2000/svg">
<path d="M254.547 0.5C266.212 0.5 277.18 2.81267 287.444 7.44043C297.712 11.8698 306.671 18.4135 314.317 27.0645C321.966 35.5178 327.997 45.7755 332.416 57.8281C336.839 69.8919 339.047 83.4513 339.047 98.5C339.047 113.549 336.839 127.108 332.416 139.172C327.997 151.224 321.967 161.58 314.321 170.231L314.317 170.235C306.672 178.686 297.716 185.227 287.452 189.855L287.445 189.859C277.18 194.288 266.212 196.5 254.547 196.5C242.882 196.5 231.914 194.288 221.648 189.859L221.642 189.855C211.378 185.227 202.422 178.686 194.776 170.235L194.772 170.231C187.127 161.58 181.097 151.224 176.678 139.172C172.254 127.108 170.047 113.549 170.047 98.5C170.047 83.4513 172.254 69.8919 176.678 57.8281C181.097 45.7755 187.128 35.5178 194.776 27.0645C202.423 18.4135 211.38 11.8698 221.648 7.44043C231.913 2.81242 242.881 0.500002 254.547 0.5ZM133.5 3.5V113H153V162H133.5V193.5H80V162H0.5V117.855L0.577148 117.733L72.5771 3.7334L72.7246 3.5H133.5ZM489.012 3.5V113H508.512V162H489.012V193.5H435.512V162H356.012V117.855L356.089 117.733L428.089 3.7334L428.236 3.5H489.012ZM254.547 52.5C250.43 52.5 246.509 53.4793 242.779 55.4424L242.771 55.4473L242.761 55.4521C239.04 57.2145 235.699 59.9613 232.739 63.71C229.987 67.4495 227.712 72.2894 225.926 78.2441C224.343 83.9878 223.547 90.7375 223.547 98.5C223.547 106.259 224.342 113.107 225.925 119.052L226.266 120.12C227.997 125.396 230.157 129.782 232.739 133.29C235.697 137.037 239.04 139.885 242.765 141.849C246.497 143.616 250.422 144.5 254.547 144.5C258.671 144.5 262.596 143.616 266.328 141.849C270.049 139.888 273.288 137.044 276.044 133.304L276.049 133.297L276.055 133.29C279.004 129.554 281.279 124.818 282.865 119.067L282.868 119.057C284.651 113.113 285.547 106.263 285.547 98.5C285.547 90.7367 284.651 83.9887 282.869 78.248L282.866 78.2383L282.864 78.2285C281.277 72.2767 279.002 67.4436 276.055 63.71L276.049 63.7031L276.044 63.6963C273.287 59.9548 270.049 57.2125 266.333 55.4521L266.323 55.4473L266.314 55.4424C262.585 53.4793 258.664 52.5 254.547 52.5ZM408.413 113H437.012V67.2422L408.413 113ZM52.9014 113H81.5V67.2422L52.9014 113Z" fill="white" fill-opacity="0.05" stroke="white"/>
</svg>
