<svg width="162" height="191" viewBox="0 0 162 191" fill="none" xmlns="http://www.w3.org/2000/svg">
<path d="M126.454 0H158.341C159.256 0 160.021 0.312771 160.67 0.954774C161.302 1.59678 161.618 2.35401 161.618 3.2594V186.741C161.618 187.646 161.302 188.42 160.67 189.045C160.038 189.687 159.256 190 158.358 190H126.47C125.555 190 124.79 189.687 124.158 189.045C123.526 188.42 123.21 187.646 123.21 186.741V67.0482C123.21 66.3239 123.027 65.9617 122.661 65.9617C122.295 65.9617 121.929 66.2416 121.58 66.7848L92.6862 111.84C91.7714 113.289 90.5072 114.013 88.877 114.013H72.7918C71.1616 114.013 69.8808 113.289 68.9825 111.84L40.089 66.7848C39.723 66.2416 39.3571 66.0111 39.0078 66.1099C38.6418 66.2086 38.4588 66.6037 38.4588 67.328V186.741C38.4588 187.646 38.1428 188.42 37.5107 189.045C36.8786 189.687 36.0968 190 35.1985 190H3.26092C2.34604 190 1.58087 189.687 0.948772 189.045C0.316673 188.42 0.000624042 187.646 0.000624042 186.741V3.2594C-0.0160101 2.35401 0.300039 1.58032 0.932138 0.954774C1.58087 0.312771 2.34604 0 3.26092 0H35.1486C36.7788 0 38.0596 0.724311 38.9579 2.17293L79.8447 65.4185C80.3936 66.5049 80.9259 66.5049 81.4748 65.4185L122.644 2.17293C123.543 0.724311 124.823 0 126.454 0Z" fill="#175FFF"/>
</svg>
