<svg width="753" height="220" viewBox="0 0 753 220" fill="none" xmlns="http://www.w3.org/2000/svg">
<path d="M144.678 0.342773H181.16C182.202 0.342773 183.08 0.712476 183.808 1.43935C184.536 2.17249 184.9 3.06228 184.9 4.10246V215.898C184.9 216.945 184.536 217.835 183.808 218.561C183.08 219.295 182.195 219.658 181.16 219.658H144.678C143.636 219.658 142.751 219.295 142.03 218.561C141.302 217.835 140.938 216.945 140.938 215.898V77.7297C140.938 76.8963 140.731 76.4765 140.317 76.4765C139.903 76.4765 139.488 76.7898 139.074 77.4164L106.024 129.425C104.983 131.099 103.533 131.932 101.663 131.932H83.2654C81.3955 131.932 79.9398 131.099 78.9044 129.425L45.8545 77.4164C45.4404 76.7898 45.0263 76.5329 44.6121 76.6331C44.1917 76.7397 43.9909 77.2096 43.9909 78.043V215.898C43.9909 216.945 43.627 217.835 42.8991 218.561C42.1712 219.295 41.2864 219.658 40.2511 219.658H3.74374C2.70211 219.658 1.81735 219.295 1.09574 218.561C0.36785 217.835 0.00390625 216.945 0.00390625 215.898V4.10246C0.00390625 3.06228 0.36785 2.17249 1.09574 1.43935C1.82362 0.712476 2.70211 0.342773 3.74374 0.342773H40.226C42.0959 0.342773 43.5517 1.18244 44.5933 2.84923L91.3601 75.8499C91.9813 77.1031 92.6025 77.1031 93.23 75.8499L140.311 2.84923C141.352 1.18244 142.808 0.342773 144.678 0.342773Z" fill="#f5f5f5"/>
<path d="M257.567 209.807C245.413 203.24 235.969 194.06 229.23 182.255C222.491 170.456 219.121 156.858 219.121 141.469V77.6039C219.121 62.421 222.491 48.9739 229.23 37.2812C235.969 25.5823 245.413 16.5027 257.567 10.036C269.716 3.57562 283.759 0.342285 299.691 0.342285C315.623 0.342285 329.967 3.57562 342.115 10.036C354.263 16.5027 363.713 25.5823 370.453 37.2812C377.192 48.9801 380.562 62.421 380.562 77.6039V141.469C380.562 156.858 377.192 170.512 370.453 182.412C363.713 194.317 354.263 203.497 342.115 209.964C329.961 216.424 315.817 219.658 299.691 219.658C283.564 219.658 269.716 216.374 257.567 209.807ZM326.955 171.64C333.895 164.459 337.371 154.916 337.371 143.01V77.2969C337.371 65.3974 333.952 55.804 327.112 48.5164C320.266 41.2352 311.13 37.5883 299.691 37.5883C288.252 37.5883 279.417 41.2352 272.583 48.5164C265.737 55.804 262.317 65.3974 262.317 77.2969V143.01C262.317 154.916 265.737 164.453 272.583 171.64C279.423 178.827 288.459 182.412 299.691 182.412C310.923 182.412 320.009 178.821 326.955 171.64Z" fill="#f5f5f5"/>
<path d="M531.951 216.838L492.978 130.052C492.564 129.218 491.936 128.798 491.108 128.798H462.112C461.07 128.798 460.556 129.318 460.556 130.365V215.898C460.556 216.944 460.192 217.834 459.464 218.561C458.736 219.294 457.851 219.658 456.816 219.658H420.334C419.292 219.658 418.407 219.294 417.686 218.561C416.958 217.834 416.594 216.944 416.594 215.898V4.10197C416.594 3.05553 416.958 2.172 417.686 1.43886C418.407 0.711988 419.286 0.342285 420.327 0.342285H509.506C522.803 0.342285 534.499 3.06179 544.583 8.48828C554.66 13.921 562.454 21.6472 567.969 31.673C573.472 41.6989 576.227 53.2912 576.227 66.4502C576.227 80.6555 572.694 92.8181 565.629 102.95C558.557 113.083 548.687 120.239 536.005 124.412C534.963 124.832 534.65 125.565 535.07 126.605L577.476 215.271C577.89 216.111 578.097 216.737 578.097 217.151C578.097 218.824 576.955 219.658 574.665 219.658H536.312C534.235 219.658 532.773 218.718 531.945 216.838H531.951ZM460.556 39.819V93.3946C460.556 94.441 461.07 94.9611 462.112 94.9611H502.955C511.683 94.9611 518.806 92.3482 524.315 87.1285C529.818 81.9088 532.573 75.1162 532.573 66.7635C532.573 58.4107 529.818 51.5681 524.315 46.2418C518.806 40.9156 511.683 38.2525 502.955 38.2525H462.112C461.07 38.2525 460.556 38.7726 460.556 39.819Z" fill="#f5f5f5"/>
<path d="M601.785 34.4928V4.10197C601.785 3.05553 602.149 2.172 602.877 1.43886C603.611 0.711988 604.49 0.342285 605.525 0.342285H749.264C750.306 0.342285 751.19 0.711988 751.912 1.43886C752.64 2.172 753.004 3.06179 753.004 4.10197V215.898C753.004 216.944 752.64 217.834 751.912 218.561C751.19 219.294 750.306 219.658 749.264 219.658H712.782C711.746 219.658 710.862 219.294 710.134 218.561C709.406 217.834 709.042 216.944 709.042 215.898V129.425C709.042 128.379 708.527 127.858 707.486 127.858H640.451C639.416 127.858 638.531 127.495 637.803 126.762C637.075 126.035 636.711 125.145 636.711 124.099V93.7079C636.711 92.6677 637.075 91.7779 637.803 91.0448C638.531 90.3179 639.416 89.9482 640.451 89.9482H707.486C708.527 89.9482 709.042 89.4281 709.042 88.3817V39.819C709.042 38.7726 708.527 38.2525 707.486 38.2525H605.525C604.49 38.2525 603.605 37.8891 602.877 37.1559C602.155 36.429 601.785 35.5392 601.785 34.4928Z" fill="#f5f5f5"/>
</svg>
