<svg xmlns="http://www.w3.org/2000/svg">
    <symbol id="bold-arrow-left" viewBox="0 0 32 32" fill="none">
        <path fill="currentColor" fill-rule="evenodd" clip-rule="evenodd" d="M12.8473 22.59C12.3103 23.1367 11.4397 23.1367 10.9027 22.59L5.40272 16.99C4.86576 16.4433 4.86576 15.5568 5.40272 15.0101L10.9027 9.41005C11.4397 8.86332 12.3103 8.86332 12.8473 9.41005C13.3842 9.95679 13.3842 10.8432 12.8473 11.39L9.69454 14.6H25.625C26.3844 14.6 27 15.2268 27 16C27 16.7732 26.3844 17.4 25.625 17.4H9.69454L12.8473 20.6101C13.3842 21.1568 13.3842 22.0433 12.8473 22.59Z"/>
    </symbol>
    <symbol id="bold-arrow-right" viewBox="0 0 32 32" fill="none">
        <path fill="currentColor" fill-rule="evenodd" clip-rule="evenodd" d="M19.1527 22.59C19.6897 23.1367 20.5603 23.1367 21.0973 22.59L26.5973 16.99C27.1342 16.4433 27.1342 15.5568 26.5973 15.0101L21.0973 9.41005C20.5603 8.86332 19.6897 8.86332 19.1527 9.41005C18.6158 9.95679 18.6158 10.8432 19.1527 11.39L22.3055 14.6H6.375C5.61559 14.6 5 15.2268 5 16C5 16.7732 5.61559 17.4 6.375 17.4H22.3055L19.1527 20.6101C18.6158 21.1568 18.6158 22.0433 19.1527 22.59Z"/>
    </symbol>
    <symbol id="arrow-left" viewBox="0 0 32 32" fill="none">
        <path d="M27 16H5" stroke="currentColor" stroke-width="1.5" stroke-linecap="round" stroke-linejoin="round"/>
        <path d="M14 7L5 16L14 25" stroke="currentColor" stroke-width="1.5" stroke-linecap="round" stroke-linejoin="round"/>
    </symbol>
    <symbol id="arrow-right" viewBox="0 0 32 32" fill="none">
        <path d="M5 16H27" stroke="currentColor" stroke-width="1.5" stroke-linecap="round" stroke-linejoin="round"/>
        <path d="M18 7L27 16L18 25" stroke="currentColor" stroke-width="1.5" stroke-linecap="round" stroke-linejoin="round"/>
    </symbol>
    <symbol id="mail" viewBox="0 0 28 28" fill="none">
        <path d="M27 10.8311L16.7041 17.4502C15.0571 18.509 12.9429 18.509 11.2959 17.4502L1 10.8311V19C1 20.6569 2.34315 22 4 22H24C25.6569 22 27 20.6569 27 19V10.8311ZM4 6C2.51961 6 1.28915 7.07218 1.04395 8.48242L12.3779 15.7686C13.366 16.4036 14.634 16.4036 15.6221 15.7686L26.9551 8.48242C26.7098 7.07226 25.4803 6 24 6H4Z" fill="currentColor"/>
        <path d="M27 10.8311L16.7041 17.4502C15.0571 18.509 12.9429 18.509 11.2959 17.4502L1 10.8311V19C1 20.6569 2.34315 22 4 22H24C25.6569 22 27 20.6569 27 19V10.8311Z" fill="currentColor"/>
        <path d="M4 6C2.51961 6 1.28915 7.07218 1.04395 8.48242L12.3779 15.7686C13.366 16.4036 14.634 16.4036 15.6221 15.7686L26.9551 8.48242C26.7098 7.07226 25.4803 6 24 6H4Z" fill="currentColor"/>
    </symbol>
    <symbol id="logo" viewBox="0 0 103 30" fill="none">
        <path d="M19.7898 0H24.7802C24.9226 0 25.0428 0.0505713 25.1424 0.15C25.242 0.250285 25.2917 0.371999 25.2917 0.514284V29.4856C25.2917 29.6288 25.242 29.7505 25.1424 29.8499C25.0428 29.9502 24.9218 29.9999 24.7802 29.9999H19.7898C19.6473 29.9999 19.5263 29.9502 19.4276 29.8499C19.328 29.7505 19.2782 29.6288 19.2782 29.4856V10.5857C19.2782 10.4717 19.2499 10.4143 19.1933 10.4143C19.1366 10.4143 19.08 10.4571 19.0233 10.5428L14.5024 17.6571C14.36 17.8859 14.1617 17.9999 13.9059 17.9999H11.3893C11.1335 17.9999 10.9343 17.8859 10.7927 17.6571L6.27186 10.5428C6.21521 10.4571 6.15856 10.422 6.10191 10.4357C6.0444 10.4503 6.01694 10.5145 6.01694 10.6285V29.4856C6.01694 29.6288 5.96715 29.7505 5.86759 29.8499C5.76802 29.9502 5.64699 29.9999 5.50537 29.9999H0.511568C0.369085 29.9999 0.248059 29.9502 0.14935 29.8499C0.0497835 29.7505 0 29.6288 0 29.4856V0.514284C0 0.371999 0.0497835 0.250285 0.14935 0.15C0.248917 0.0505713 0.369085 0 0.511568 0H5.50193C5.75772 0 5.95685 0.114857 6.09934 0.342856L12.4965 10.3285C12.5815 10.5 12.6665 10.5 12.7523 10.3285L19.1924 0.342856C19.3349 0.114857 19.534 0 19.7898 0Z" fill="currentColor"/>
        <path d="M35.2316 28.6525C33.569 27.7542 32.2772 26.4985 31.3554 24.8836C30.4335 23.2696 29.9726 21.4096 29.9726 19.3045V10.5685C29.9726 8.49169 30.4335 6.65227 31.3554 5.05284C32.2772 3.45256 33.569 2.21056 35.2316 1.326C36.8934 0.442284 38.8143 0 40.9936 0C43.1729 0 45.1351 0.442284 46.7968 1.326C48.4586 2.21056 49.7512 3.45256 50.6731 5.05284C51.5949 6.65312 52.0559 8.49169 52.0559 10.5685V19.3045C52.0559 21.4096 51.5949 23.2774 50.6731 24.9051C49.7512 26.5336 48.4586 27.7893 46.7968 28.6739C45.1342 29.5576 43.1996 29.9999 40.9936 29.9999C38.7877 29.9999 36.8934 29.5508 35.2316 28.6525ZM44.7231 23.4316C45.6724 22.4494 46.1479 21.1439 46.1479 19.5154V10.5265C46.1479 8.89883 45.6801 7.58655 44.7446 6.58969C43.8081 5.5937 42.5584 5.09484 40.9936 5.09484C39.4289 5.09484 38.2203 5.5937 37.2856 6.58969C36.3492 7.58655 35.8814 8.89883 35.8814 10.5265V19.5154C35.8814 21.1439 36.3492 22.4485 37.2856 23.4316C38.2212 24.4148 39.4572 24.9051 40.9936 24.9051C42.5301 24.9051 43.7729 24.4139 44.7231 23.4316Z" fill="currentColor"/>
        <path d="M72.7621 29.6142L67.431 17.7428C67.3743 17.6288 67.2885 17.5714 67.1752 17.5714H63.2088C63.0663 17.5714 62.9959 17.6425 62.9959 17.7857V29.4856C62.9959 29.6288 62.9461 29.7505 62.8466 29.8499C62.747 29.9502 62.626 29.9999 62.4844 29.9999H57.494C57.3515 29.9999 57.2305 29.9502 57.1318 29.8499C57.0322 29.7505 56.9824 29.6288 56.9824 29.4856V0.514284C56.9824 0.371142 57.0322 0.250285 57.1318 0.15C57.2305 0.0505713 57.3506 0 57.4931 0H69.6918C71.5106 0 73.1106 0.371999 74.4899 1.11428C75.8684 1.85742 76.9344 2.91428 77.6889 4.2857C78.4417 5.65713 78.8185 7.24283 78.8185 9.04283C78.8185 10.986 78.3353 12.6497 77.3688 14.0357C76.4014 15.4217 75.0513 16.4005 73.3166 16.9714C73.1741 17.0288 73.1312 17.1291 73.1887 17.2714L78.9893 29.3999C79.046 29.5148 79.0743 29.6005 79.0743 29.6571C79.0743 29.8859 78.9181 29.9999 78.6048 29.9999H73.3586C73.0745 29.9999 72.8745 29.8713 72.7612 29.6142H72.7621ZM62.9959 5.39998V12.7285C62.9959 12.8717 63.0663 12.9428 63.2088 12.9428H68.7957C69.9896 12.9428 70.9639 12.5854 71.7175 11.8714C72.4702 11.1574 72.8471 10.2283 72.8471 9.08569C72.8471 7.94312 72.4702 7.00712 71.7175 6.27855C70.9639 5.54998 69.9896 5.1857 68.7957 5.1857H63.2088C63.0663 5.1857 62.9959 5.25684 62.9959 5.39998Z" fill="currentColor"/>
        <path d="M82.3164 4.67141V0.514284C82.3164 0.371142 82.3662 0.250285 82.4658 0.15C82.5662 0.0505713 82.6864 0 82.828 0H102.49C102.632 0 102.753 0.0505713 102.852 0.15C102.952 0.250285 103.001 0.371999 103.001 0.514284V29.4856C103.001 29.6288 102.952 29.7505 102.852 29.8499C102.753 29.9502 102.632 29.9999 102.49 29.9999H97.4995C97.3579 29.9999 97.2369 29.9502 97.1373 29.8499C97.0377 29.7505 96.988 29.6288 96.988 29.4856V17.6571C96.988 17.5139 96.9176 17.4428 96.7751 17.4428H87.6055C87.4638 17.4428 87.3428 17.3931 87.2433 17.2928C87.1437 17.1934 87.0939 17.0717 87.0939 16.9285V12.7714C87.0939 12.6291 87.1437 12.5074 87.2433 12.4071C87.3428 12.3077 87.4638 12.2571 87.6055 12.2571H96.7751C96.9176 12.2571 96.988 12.186 96.988 12.0428V5.39998C96.988 5.25684 96.9176 5.1857 96.7751 5.1857H82.828C82.6864 5.1857 82.5653 5.13598 82.4658 5.0357C82.367 4.93627 82.3164 4.81456 82.3164 4.67141Z" fill="currentColor"/>
    </symbol>
    <symbol id="logo2" viewBox="0 0 187 229" fill="none">
        <path d="M71.2004 0H89.1549C89.67 0 90.1009 0.176139 90.4661 0.537688C90.822 0.899238 91 1.32568 91 1.83556V105.164C91 105.674 90.822 106.11 90.4661 106.462C90.1102 106.824 89.67 107 89.1643 107H71.2097C70.6946 107 70.2638 106.824 69.9079 106.462C69.552 106.11 69.374 105.674 69.374 105.164V37.7587C69.374 37.3508 69.271 37.1469 69.0649 37.1469C68.8589 37.1469 68.6528 37.3045 68.4561 37.6104L52.1875 62.9837C51.6723 63.7995 50.9605 64.2074 50.0427 64.2074H40.9858C40.0679 64.2074 39.3467 63.7995 38.841 62.9837L22.5723 37.6104C22.3663 37.3045 22.1602 37.1747 21.9635 37.2303C21.7575 37.2859 21.6544 37.5084 21.6544 37.9163V105.164C21.6544 105.674 21.4765 106.11 21.1206 106.462C20.7647 106.824 20.3245 107 19.8187 107H1.83608C1.32095 107 0.890117 106.824 0.534211 106.462C0.178305 106.11 0.00035137 105.674 0.00035137 105.164V1.83556C-0.00901459 1.32568 0.168939 0.889967 0.524845 0.537688C0.890117 0.176139 1.32095 0 1.83608 0H19.7906C20.7085 0 21.4297 0.407902 21.9354 1.2237L44.957 36.8409C45.266 37.4528 45.5657 37.4528 45.8748 36.8409L69.0556 1.2237C69.5613 0.407902 70.2825 0 71.2004 0Z" fill="#175FFF"/>
        <path d="M126.81 102.198C120.859 98.9903 116.241 94.5126 112.944 88.7557C109.648 82.9987 108 76.361 108 68.8519V37.6938C108 30.2867 109.648 23.7232 112.944 18.0218C116.241 12.3112 120.869 7.87992 126.81 4.72795C132.75 1.57598 139.622 0 147.426 0C155.229 0 162.24 1.57598 168.19 4.72795C174.131 7.87992 178.759 12.3112 182.056 18.0218C185.352 23.7325 187 30.2867 187 37.6938V68.8519C187 76.361 185.352 83.0172 182.056 88.8298C178.759 94.6332 174.131 99.1201 168.19 102.272C162.24 105.424 155.322 107 147.426 107C139.529 107 132.76 105.396 126.81 102.198ZM160.769 83.5735C164.168 80.0692 165.863 75.4154 165.863 69.6028V37.5455C165.863 31.7422 164.186 27.0606 160.844 23.5007C157.491 19.9501 153.022 18.1702 147.426 18.1702C141.829 18.1702 137.509 19.9501 134.156 23.5007C130.804 27.0513 129.137 31.7329 129.137 37.5455V69.6028C129.137 75.4062 130.814 80.0692 134.156 83.5735C137.499 87.0777 141.922 88.8298 147.426 88.8298C152.929 88.8298 157.37 87.0777 160.769 83.5735Z" fill="#175FFF"/>
        <path d="M56.4272 227.641L37.3637 185.698C37.159 185.294 36.8518 185.092 36.4515 185.092H22.2656C21.7536 185.092 21.5023 185.349 21.5023 185.845V227.182C21.5023 227.687 21.3254 228.118 20.9717 228.467C20.618 228.826 20.1805 229 19.6779 229H1.82444C1.31248 229 0.884294 228.826 0.530576 228.467C0.176859 228.118 0 227.687 0 227.182V124.818C0 124.313 0.176859 123.882 0.530576 123.533C0.884294 123.184 1.31248 123 1.82444 123H45.4434C51.9499 123 57.6653 124.313 62.5987 126.94C67.5321 129.566 71.3392 133.295 74.0387 138.144C76.7288 142.993 78.0785 148.595 78.0785 154.951C78.0785 161.82 76.3471 167.698 72.8937 172.593C69.431 177.488 64.6 180.95 58.4006 182.961C57.8887 183.163 57.7397 183.522 57.9445 184.018L78.6928 226.869C78.8976 227.273 79 227.576 79 227.779C79 228.587 78.4415 228.991 77.3245 228.991H58.5589C57.5442 228.991 56.8275 228.541 56.4272 227.632V227.641ZM21.5023 142.084V167.982C21.5023 168.488 21.7536 168.736 22.2656 168.736H42.2506C46.5232 168.736 50.0045 167.477 52.7039 164.952C55.394 162.426 56.7437 159.148 56.7437 155.107C56.7437 151.066 55.394 147.76 52.7039 145.188C50.0045 142.617 46.5232 141.331 42.2506 141.331H22.2656C21.7536 141.331 21.5023 141.588 21.5023 142.084Z" fill="#175FFF"/>
        <path d="M108 139.503V124.818C108 124.313 108.177 123.882 108.531 123.533C108.885 123.184 109.322 123 109.825 123H180.175C180.687 123 181.115 123.174 181.469 123.533C181.823 123.891 182 124.313 182 124.818V227.182C182 227.687 181.823 228.118 181.469 228.467C181.115 228.826 180.687 229 180.175 229H162.322C161.81 229 161.381 228.826 161.027 228.467C160.674 228.118 160.497 227.687 160.497 227.182V185.386C160.497 184.881 160.245 184.633 159.733 184.633H126.924C126.412 184.633 125.983 184.458 125.629 184.1C125.275 183.751 125.098 183.32 125.098 182.814V168.129C125.098 167.624 125.275 167.202 125.629 166.844C125.983 166.495 126.421 166.311 126.924 166.311H159.733C160.245 166.311 160.497 166.063 160.497 165.558V142.084C160.497 141.579 160.245 141.331 159.733 141.331H109.835C109.332 141.331 108.894 141.156 108.54 140.798C108.186 140.449 108.009 140.018 108.009 139.513L108 139.503Z" fill="#175FFF"/>
    </symbol>
    <symbol id="logo3" viewBox="0 0 162 191" fill="none">
        <path d="M126.454 0H158.341C159.256 0 160.021 0.312771 160.67 0.954774C161.302 1.59678 161.618 2.35401 161.618 3.2594V186.741C161.618 187.646 161.302 188.42 160.67 189.045C160.038 189.687 159.256 190 158.358 190H126.47C125.555 190 124.79 189.687 124.158 189.045C123.526 188.42 123.21 187.646 123.21 186.741V67.0482C123.21 66.3239 123.027 65.9617 122.661 65.9617C122.295 65.9617 121.929 66.2416 121.58 66.7848L92.6862 111.84C91.7714 113.289 90.5072 114.013 88.877 114.013H72.7918C71.1616 114.013 69.8808 113.289 68.9825 111.84L40.089 66.7848C39.723 66.2416 39.3571 66.0111 39.0078 66.1099C38.6418 66.2086 38.4588 66.6037 38.4588 67.328V186.741C38.4588 187.646 38.1428 188.42 37.5107 189.045C36.8786 189.687 36.0968 190 35.1985 190H3.26092C2.34604 190 1.58087 189.687 0.948772 189.045C0.316673 188.42 0.000624042 187.646 0.000624042 186.741V3.2594C-0.0160101 2.35401 0.300039 1.58032 0.932138 0.954774C1.58087 0.312771 2.34604 0 3.26092 0H35.1486C36.7788 0 38.0596 0.724311 38.9579 2.17293L79.8447 65.4185C80.3936 66.5049 80.9259 66.5049 81.4748 65.4185L122.644 2.17293C123.543 0.724311 124.823 0 126.454 0Z" fill="#175FFF"/>
    </symbol>
    <symbol id="Dribbble" viewBox="0 0 25 24" fill="none">
        <path d="M21.2572 6.98C20.3845 5.46773 19.1287 4.21221 17.6162 3.34C16.0832 2.447 14.4102 2 12.5972 2C10.7842 2 9.11117 2.447 7.57717 3.34C6.04417 4.233 4.83017 5.447 3.93717 6.98C3.04417 8.513 2.59717 10.187 2.59717 12C2.59717 13.813 3.04317 15.487 3.93717 17.02C4.80949 18.5325 6.06542 19.7881 7.57817 20.66C9.11117 21.553 10.7842 22 12.5972 22C14.4102 22 16.0832 21.553 17.6172 20.66C19.1297 19.7878 20.3855 18.5323 21.2582 17.02C22.1512 15.487 22.5972 13.813 22.5972 12C22.5972 10.187 22.1512 8.513 21.2572 6.98ZM12.5972 3.66C14.5972 3.66 16.3692 4.3 17.9172 5.579C16.9972 6.753 15.6312 7.719 13.8172 8.479C12.8152 6.666 11.7292 5.152 10.5562 3.939C11.221 3.75518 11.9074 3.66135 12.5972 3.66ZM6.10717 6.8C6.83841 5.87143 7.76363 5.11377 8.81817 4.58C10.0302 5.781 11.1432 7.28 12.1582 9.08C10.1582 9.68 8.04417 9.98 5.81717 9.98C5.24417 9.98 4.81117 9.967 4.51717 9.94C4.82364 8.79438 5.36512 7.72506 6.10717 6.8ZM4.25717 12C4.25717 11.946 4.26017 11.88 4.26717 11.8C4.27417 11.72 4.27717 11.654 4.27717 11.6C4.53117 11.614 4.91817 11.62 5.43817 11.62C8.10417 11.62 10.5842 11.253 12.8772 10.52C13.0642 10.893 13.2582 11.313 13.4572 11.78C12.1372 12.073 10.7832 12.786 9.39617 13.92C8.00917 15.054 6.99717 16.247 6.35717 17.5C4.95717 15.913 4.25717 14.08 4.25717 12ZM12.5972 20.34C10.7032 20.34 9.00317 19.753 7.49617 18.581C8.09717 17.394 9.02017 16.259 10.2672 15.18C11.5132 14.1 12.7502 13.427 13.9772 13.16C14.7512 15.299 15.2747 17.5205 15.5372 19.78C14.6 20.1462 13.6033 20.336 12.5972 20.34ZM19.6772 16.38C19.0226 17.4345 18.1413 18.3299 17.0972 19.001C16.8572 16.921 16.3972 14.894 15.7182 12.92C16.6502 12.854 17.4832 12.82 18.2182 12.82C19.0172 12.82 19.9042 12.854 20.8772 12.92C20.7466 14.1498 20.3361 15.3334 19.6772 16.38ZM18.4372 11.38C17.2772 11.38 16.2042 11.427 15.2172 11.52C15.0081 10.9728 14.7813 10.4325 14.5372 9.9C16.6032 8.994 18.0692 7.894 18.9362 6.6C20.1362 8.014 20.7902 9.627 20.8962 11.44C20.0842 11.4 19.2642 11.38 18.4372 11.38Z" fill="currentColor"/>
    </symbol>
    <symbol id="facebook" viewBox="0 0 25 24" fill="none">
        <path d="M13.9942 20.997V12.801H16.7592L17.1702 9.59205H13.9942V7.54805C13.9942 6.62205 14.2522 5.98805 15.5812 5.98805H17.2652V3.12705C16.4458 3.03924 15.6222 2.99684 14.7982 3.00005C12.3542 3.00005 10.6762 4.49205 10.6762 7.23105V9.58605H7.9292V12.795H10.6822V20.997H13.9942Z" fill="currentColor"/>
    </symbol>
    <symbol id="instagram" viewBox="0 0 25 24" fill="none">
        <path d="M15.8371 12C15.8371 10.2 14.3971 8.76002 12.5971 8.76002C10.7971 8.76002 9.35707 10.2 9.35707 12C9.35707 13.8 10.7971 15.24 12.5971 15.24C14.3971 15.24 15.8371 13.8 15.8371 12ZM17.5171 12C17.5171 14.76 15.3571 16.92 12.5971 16.92C9.83707 16.92 7.67707 14.76 7.67707 12C7.67707 9.24002 9.83707 7.08002 12.5971 7.08002C15.3571 7.08002 17.5171 9.24002 17.5171 12ZM18.8371 6.84002C18.8371 7.56002 18.3571 8.04002 17.6371 8.04002C16.9171 8.04002 16.4371 7.56002 16.4371 6.84002C16.4371 6.12002 16.9171 5.64002 17.6371 5.64002C18.3571 5.64002 18.8371 6.24002 18.8371 6.84002ZM12.5971 4.08002C11.1571 4.08002 8.15707 3.96002 6.95707 4.44002C6.11707 4.80002 5.39707 5.52002 5.15707 6.36002C4.67707 7.56002 4.79707 10.56 4.79707 12C4.79707 13.44 4.67707 16.44 5.15707 17.64C5.39707 18.48 6.11707 19.2 6.95707 19.44C8.15707 19.92 11.2771 19.8 12.5971 19.8C13.9171 19.8 17.0371 19.92 18.2371 19.44C19.0771 19.08 19.6771 18.48 20.0371 17.64C20.5171 16.32 20.3971 13.32 20.3971 12C20.3971 10.68 20.5171 7.56002 20.0371 6.36002C19.7971 5.52002 19.0771 4.80002 18.2371 4.56002C17.0371 3.96002 14.0371 4.08002 12.5971 4.08002ZM22.1971 12V15.96C22.1971 17.4 21.7171 18.84 20.6371 20.04C19.5571 21.12 18.1171 21.6 16.5571 21.6H8.63707C7.19707 21.6 5.75707 21.12 4.55707 20.04C3.59707 18.96 2.99707 17.52 2.99707 15.96V12V8.04002C2.99707 6.48002 3.59707 5.04002 4.55707 3.96002C5.75707 3.00002 7.19707 2.40002 8.63707 2.40002H16.5571C17.9971 2.40002 19.4371 2.88002 20.6371 3.96002C21.5971 5.04002 22.1971 6.48002 22.1971 8.04002V12Z" fill="currentColor"/>
    </symbol>
    <symbol id="behance" viewBox="0 0 25 24" fill="none">
        <path d="M15.4565 6.89763H20.1323V8.03201H15.4565V6.89763ZM10.7714 11.3859C11.805 10.8914 12.3464 10.139 12.3464 8.97654C12.3464 6.67732 10.6354 6.11951 8.65967 6.11951H3.22217V17.6601H8.81201C10.9073 17.6601 12.8737 16.6523 12.8737 14.3086C12.8737 12.8601 12.1894 11.789 10.7714 11.3859ZM5.75811 8.08826H8.13701C9.05342 8.08826 9.87607 8.34373 9.87607 9.40779C9.87607 10.3875 9.23623 10.7812 8.3292 10.7812H5.75811V8.08826ZM8.46514 15.7008H5.75576V12.5226H8.51904C9.63467 12.5226 10.3401 12.989 10.3401 14.1703C10.3401 15.3328 9.49873 15.7008 8.46514 15.7008ZM21.9604 13.6031C21.9604 11.1304 20.5144 9.07029 17.8987 9.07029C15.3558 9.07029 13.6261 10.9851 13.6261 13.4953C13.6261 16.0969 15.2644 17.8828 17.8987 17.8828C19.8933 17.8828 21.1847 16.9851 21.8058 15.0703H19.7831C19.5628 15.7851 18.6675 16.1601 17.9714 16.1601C16.6261 16.1601 15.9229 15.3726 15.9229 14.0344H21.944C21.9511 13.8961 21.9604 13.7508 21.9604 13.6031ZM15.9229 12.5859C15.9956 11.4867 16.7292 10.8 17.8261 10.8C18.9792 10.8 19.5558 11.4773 19.6565 12.5859H15.9229Z" fill="currentColor"/>
    </symbol>
</svg>