<svg width="301" height="302" viewBox="0 0 301 302" fill="none" xmlns="http://www.w3.org/2000/svg">
<path d="M235.6 192.053H216.752L147.643 56.2638H141.36L91.0987 169.948H69.1094L0 299.422H282.72L235.6 192.053Z" fill="url(#paint0_linear_5321_10455)"/>
<path opacity="0.16" d="M235.6 192.053H216.752L147.643 56.2638H141.36L91.0987 169.948H69.1094L0 299.422H282.72L235.6 192.053Z" fill="url(#paint1_linear_5321_10455)"/>
<path d="M298.424 299.422L270.152 211.001H251.304L232.456 157.316L204.184 166.79L191.619 195.211L172.771 185.737L53.3999 299.422H298.424Z" fill="url(#paint2_linear_5321_10455)"/>
<path opacity="0.5" d="M257.59 299.422L197.904 239.421H147.643L103.664 192.053L0 299.422H257.59Z" fill="url(#paint3_linear_5321_10455)"/>
<path d="M1.57373 301H300.001" stroke="url(#paint4_linear_5321_10455)" stroke-miterlimit="10" stroke-linecap="round"/>
<path d="M144.502 1V56.2632" stroke="url(#paint5_linear_5321_10455)" stroke-miterlimit="10" stroke-linecap="round"/>
<path d="M207.329 56.2637C169.633 56.2637 169.633 43.6321 144.502 43.6321V5.7373C169.633 5.7373 169.633 18.3689 207.329 18.3689V56.2637Z" fill="url(#paint6_linear_5321_10455)"/>
<defs>
<linearGradient id="paint0_linear_5321_10455" x1="119.827" y1="243.141" x2="55.6189" y2="77.0754" gradientUnits="userSpaceOnUse">
<stop stop-color="white" stop-opacity="0"/>
<stop offset="1" stop-color="white"/>
</linearGradient>
<linearGradient id="paint1_linear_5321_10455" x1="95.0295" y1="64.2192" x2="109.047" y2="134.633" gradientUnits="userSpaceOnUse">
<stop stop-color="white" stop-opacity="0"/>
<stop offset="1" stop-color="white"/>
</linearGradient>
<linearGradient id="paint2_linear_5321_10455" x1="189.226" y1="261.621" x2="229.666" y2="148.003" gradientUnits="userSpaceOnUse">
<stop stop-color="white" stop-opacity="0"/>
<stop offset="1" stop-color="white"/>
</linearGradient>
<linearGradient id="paint3_linear_5321_10455" x1="128.472" y1="306.454" x2="134.633" y2="173.482" gradientUnits="userSpaceOnUse">
<stop stop-color="white" stop-opacity="0"/>
<stop offset="1" stop-color="white"/>
</linearGradient>
<linearGradient id="paint4_linear_5321_10455" x1="-nan" y1="-nan" x2="-nan" y2="-nan" gradientUnits="userSpaceOnUse">
<stop stop-color="white" stop-opacity="0.05"/>
<stop offset="1" stop-color="white" stop-opacity="0.7"/>
</linearGradient>
<linearGradient id="paint5_linear_5321_10455" x1="-nan" y1="-nan" x2="-nan" y2="-nan" gradientUnits="userSpaceOnUse">
<stop stop-color="white" stop-opacity="0"/>
<stop offset="1" stop-color="white" stop-opacity="0.7"/>
</linearGradient>
<linearGradient id="paint6_linear_5321_10455" x1="151.116" y1="40.5781" x2="216.925" y2="15.4282" gradientUnits="userSpaceOnUse">
<stop stop-color="white" stop-opacity="0"/>
<stop offset="1" stop-color="white"/>
</linearGradient>
</defs>
</svg>
