<svg width="336" height="309" viewBox="0 0 336 309" fill="none" xmlns="http://www.w3.org/2000/svg">
<path d="M199.477 306.24H37.5537V285.119C37.5537 277.375 43.8898 271.039 51.634 271.039H185.397C193.141 271.039 199.477 277.375 199.477 285.119V306.24Z" fill="url(#paint0_linear_5333_6737)"/>
<path d="M55.5064 250.623C68.5307 229.15 104.435 186.909 104.435 102.076V91.5154C104.435 83.7712 110.772 77.4351 118.516 77.4351C126.26 77.4351 132.596 83.7712 132.596 91.5154V102.076C132.596 186.909 168.501 229.15 181.525 250.623C183.989 254.847 185.397 260.127 185.397 265.055V271.039H51.6343V265.055C51.6343 260.127 53.0423 254.847 55.5064 250.623Z" fill="url(#paint1_linear_5333_6737)"/>
<path d="M118.515 119.676C134.068 119.676 146.676 107.068 146.676 91.5153C146.676 75.9627 134.068 63.3547 118.515 63.3547C102.962 63.3547 90.3545 75.9627 90.3545 91.5153C90.3545 107.068 102.962 119.676 118.515 119.676Z" fill="url(#paint2_linear_5333_6737)"/>
<path d="M88.5947 153.117H148.436" stroke="url(#paint3_linear_5333_6737)" stroke-miterlimit="10" stroke-linecap="round"/>
<path d="M0.592773 308H335" stroke="url(#paint4_linear_5333_6737)" stroke-miterlimit="10" stroke-linecap="round"/>
<path d="M298.039 306.24H107.955V285.119C107.955 277.375 114.291 271.039 122.035 271.039H283.959C291.703 271.039 298.039 277.375 298.039 285.119V306.24Z" fill="url(#paint5_linear_5333_6737)"/>
<path d="M248.758 42.2343H157.236V21.1139C157.236 17.2418 160.404 14.0737 164.276 14.0737H241.718C245.59 14.0737 248.758 17.2418 248.758 21.1139V42.2343Z" fill="url(#paint6_linear_5333_6737)"/>
<path d="M283.959 271.039H122.036V257.663C122.036 252.735 123.444 247.807 125.908 243.583C138.58 221.758 178.357 144.669 178.357 52.7946V14.0737H227.638V52.7946C227.638 144.669 267.767 221.758 280.087 243.583C282.551 247.807 283.959 252.735 283.959 257.663V271.039Z" fill="url(#paint7_linear_5333_6737)"/>
<path d="M158.996 61.5947H246.998" stroke="url(#paint8_linear_5333_6737)" stroke-miterlimit="10" stroke-linecap="round"/>
<path d="M227.637 -0.0065918H178.356V14.0737H227.637V-0.0065918Z" fill="url(#paint9_linear_5333_6737)"/>
<defs>
<linearGradient id="paint0_linear_5333_6737" x1="19.4517" y1="313.884" x2="209.348" y2="268.343" gradientUnits="userSpaceOnUse">
<stop stop-color="white" stop-opacity="0"/>
<stop offset="1" stop-color="white"/>
</linearGradient>
<linearGradient id="paint1_linear_5333_6737" x1="75.9094" y1="169.38" x2="234.108" y2="241.235" gradientUnits="userSpaceOnUse">
<stop stop-color="white" stop-opacity="0"/>
<stop offset="1" stop-color="white"/>
</linearGradient>
<linearGradient id="paint2_linear_5333_6737" x1="95.2749" y1="108.682" x2="151.388" y2="67.2332" gradientUnits="userSpaceOnUse">
<stop stop-color="white" stop-opacity="0"/>
<stop offset="1" stop-color="white"/>
</linearGradient>
<linearGradient id="paint3_linear_5333_6737" x1="-nan" y1="-nan" x2="-nan" y2="-nan" gradientUnits="userSpaceOnUse">
<stop stop-color="white" stop-opacity="0.05"/>
<stop offset="1" stop-color="white" stop-opacity="0.7"/>
</linearGradient>
<linearGradient id="paint4_linear_5333_6737" x1="-nan" y1="-nan" x2="-nan" y2="-nan" gradientUnits="userSpaceOnUse">
<stop stop-color="white" stop-opacity="0.05"/>
<stop offset="1" stop-color="white" stop-opacity="0.7"/>
</linearGradient>
<linearGradient id="paint5_linear_5333_6737" x1="125.853" y1="335.216" x2="287.623" y2="243.697" gradientUnits="userSpaceOnUse">
<stop stop-color="white" stop-opacity="0"/>
<stop offset="1" stop-color="white"/>
</linearGradient>
<linearGradient id="paint6_linear_5333_6737" x1="168.872" y1="58.308" x2="238.17" y2="0.86324" gradientUnits="userSpaceOnUse">
<stop stop-color="white" stop-opacity="0"/>
<stop offset="1" stop-color="white"/>
</linearGradient>
<linearGradient id="paint7_linear_5333_6737" x1="154.909" y1="140.473" x2="327.135" y2="158.482" gradientUnits="userSpaceOnUse">
<stop stop-color="white" stop-opacity="0"/>
<stop offset="1" stop-color="white"/>
</linearGradient>
<linearGradient id="paint8_linear_5333_6737" x1="-nan" y1="-nan" x2="-nan" y2="-nan" gradientUnits="userSpaceOnUse">
<stop stop-color="white" stop-opacity="0.05"/>
<stop offset="1" stop-color="white" stop-opacity="0.7"/>
</linearGradient>
<linearGradient id="paint9_linear_5333_6737" x1="188.274" y1="23.1397" x2="233.132" y2="-25.9327" gradientUnits="userSpaceOnUse">
<stop stop-color="white" stop-opacity="0"/>
<stop offset="1" stop-color="white"/>
</linearGradient>
</defs>
</svg>
