<svg width="16" height="16" viewBox="0 0 16 16" fill="none" xmlns="http://www.w3.org/2000/svg">
<g clip-path="url(#clip0_4573_4787)">
<rect width="16" height="16" fill="white"/>
<rect x="-8" y="-8" width="32" height="32" fill="#175FFF"/>
<path d="M5 4.55692V3.17155C5 3.12389 5.01662 3.08317 5.04985 3.05025C5.08309 3.01733 5.1242 3 5.17143 3H11.7785C11.8266 3 11.8669 3.01646 11.9001 3.05025C11.9333 3.08404 11.9499 3.12389 11.9499 3.17155V12.8285C11.9499 12.8761 11.9333 12.9168 11.9001 12.9497C11.8669 12.9835 11.8266 13 11.7785 13H10.1018C10.0537 13 10.0135 12.9835 9.98024 12.9497C9.947 12.9168 9.93039 12.8761 9.93039 12.8285V8.88546C9.93039 8.83781 9.90677 8.81442 9.85867 8.81442H6.77728C6.72918 8.81442 6.68894 8.79796 6.65571 8.76417C6.62247 8.73124 6.60585 8.69052 6.60585 8.64287V7.25749C6.60585 7.20984 6.62247 7.16999 6.65571 7.1362C6.68894 7.10327 6.73005 7.08595 6.77728 7.08595H9.85867C9.90677 7.08595 9.93039 7.06255 9.93039 7.0149V4.80038C9.93039 4.75273 9.90677 4.72934 9.85867 4.72934H5.17231C5.12507 4.72934 5.08397 4.71287 5.05073 4.67908C5.01749 4.64616 5.00087 4.60544 5.00087 4.55779L5 4.55692Z" fill="#F5F5FA"/>
</g>
<defs>
<clipPath id="clip0_4573_4787">
<rect width="16" height="16" fill="white"/>
</clipPath>
</defs>
</svg>
