<svg width="180" height="180" viewBox="0 0 180 180" fill="none" xmlns="http://www.w3.org/2000/svg">
<path d="M49 49.216V33.0071C49 32.4496 49.1944 31.9731 49.5833 31.5879C49.9722 31.2027 50.4531 31 51.0057 31H128.309C128.872 31 129.343 31.1926 129.731 31.5879C130.12 31.9833 130.315 32.4496 130.315 33.0071V145.993C130.315 146.55 130.12 147.027 129.731 147.412C129.343 147.807 128.872 148 128.309 148H108.692C108.129 148 107.658 147.807 107.269 147.412C106.88 147.027 106.686 146.55 106.686 145.993V99.8599C106.686 99.3024 106.409 99.0287 105.847 99.0287H69.7943C69.2315 99.0287 68.7607 98.8361 68.3719 98.4407C67.983 98.0555 67.7885 97.5791 67.7885 97.0216V80.8127C67.7885 80.2552 67.983 79.7888 68.3719 79.3935C68.7607 79.0083 69.2417 78.8056 69.7943 78.8056H105.847C106.409 78.8056 106.686 78.5319 106.686 77.9744V52.0645C106.686 51.5069 106.409 51.2332 105.847 51.2332H51.016C50.4634 51.2332 49.9824 51.0406 49.5935 50.6453C49.2047 50.2601 49.0102 49.7837 49.0102 49.2261L49 49.216Z" fill="#F5F5FA"/>
</svg>
