<svg width="103" height="30" viewBox="0 0 103 30" fill="none" xmlns="http://www.w3.org/2000/svg">
<path d="M19.7898 0H24.7802C24.9226 0 25.0428 0.0505713 25.1424 0.15C25.242 0.250285 25.2917 0.371999 25.2917 0.514284V29.4856C25.2917 29.6288 25.242 29.7505 25.1424 29.8499C25.0428 29.9502 24.9218 29.9999 24.7802 29.9999H19.7898C19.6473 29.9999 19.5263 29.9502 19.4276 29.8499C19.328 29.7505 19.2782 29.6288 19.2782 29.4856V10.5857C19.2782 10.4717 19.2499 10.4143 19.1933 10.4143C19.1366 10.4143 19.08 10.4571 19.0233 10.5428L14.5024 17.6571C14.36 17.8859 14.1617 17.9999 13.9059 17.9999H11.3893C11.1335 17.9999 10.9343 17.8859 10.7927 17.6571L6.27186 10.5428C6.21521 10.4571 6.15856 10.422 6.10191 10.4357C6.0444 10.4503 6.01694 10.5145 6.01694 10.6285V29.4856C6.01694 29.6288 5.96715 29.7505 5.86759 29.8499C5.76802 29.9502 5.64699 29.9999 5.50537 29.9999H0.511568C0.369085 29.9999 0.248059 29.9502 0.14935 29.8499C0.0497835 29.7505 0 29.6288 0 29.4856V0.514284C0 0.371999 0.0497835 0.250285 0.14935 0.15C0.248917 0.0505713 0.369085 0 0.511568 0H5.50193C5.75772 0 5.95685 0.114857 6.09934 0.342856L12.4965 10.3285C12.5815 10.5 12.6665 10.5 12.7523 10.3285L19.1924 0.342856C19.3349 0.114857 19.534 0 19.7898 0Z" fill="#175FFF"/>
<path d="M35.2316 28.6525C33.569 27.7542 32.2772 26.4985 31.3554 24.8836C30.4335 23.2696 29.9726 21.4096 29.9726 19.3045V10.5685C29.9726 8.49169 30.4335 6.65227 31.3554 5.05284C32.2772 3.45256 33.569 2.21056 35.2316 1.326C36.8934 0.442284 38.8143 0 40.9936 0C43.1729 0 45.1351 0.442284 46.7968 1.326C48.4586 2.21056 49.7512 3.45256 50.6731 5.05284C51.5949 6.65312 52.0559 8.49169 52.0559 10.5685V19.3045C52.0559 21.4096 51.5949 23.2774 50.6731 24.9051C49.7512 26.5336 48.4586 27.7893 46.7968 28.6739C45.1342 29.5576 43.1996 29.9999 40.9936 29.9999C38.7877 29.9999 36.8934 29.5508 35.2316 28.6525ZM44.7231 23.4316C45.6724 22.4494 46.1479 21.1439 46.1479 19.5154V10.5265C46.1479 8.89883 45.6801 7.58655 44.7446 6.58969C43.8081 5.5937 42.5584 5.09484 40.9936 5.09484C39.4289 5.09484 38.2203 5.5937 37.2856 6.58969C36.3492 7.58655 35.8814 8.89883 35.8814 10.5265V19.5154C35.8814 21.1439 36.3492 22.4485 37.2856 23.4316C38.2212 24.4148 39.4572 24.9051 40.9936 24.9051C42.5301 24.9051 43.7729 24.4139 44.7231 23.4316Z" fill="#175FFF"/>
<path d="M72.7621 29.6142L67.431 17.7428C67.3743 17.6288 67.2885 17.5714 67.1752 17.5714H63.2088C63.0663 17.5714 62.9959 17.6425 62.9959 17.7857V29.4856C62.9959 29.6288 62.9461 29.7505 62.8466 29.8499C62.747 29.9502 62.626 29.9999 62.4844 29.9999H57.494C57.3515 29.9999 57.2305 29.9502 57.1318 29.8499C57.0322 29.7505 56.9824 29.6288 56.9824 29.4856V0.514284C56.9824 0.371142 57.0322 0.250285 57.1318 0.15C57.2305 0.0505713 57.3506 0 57.4931 0H69.6918C71.5106 0 73.1106 0.371999 74.4899 1.11428C75.8684 1.85742 76.9344 2.91428 77.6889 4.2857C78.4417 5.65713 78.8185 7.24283 78.8185 9.04283C78.8185 10.986 78.3353 12.6497 77.3688 14.0357C76.4014 15.4217 75.0513 16.4005 73.3166 16.9714C73.1741 17.0288 73.1312 17.1291 73.1887 17.2714L78.9893 29.3999C79.046 29.5148 79.0743 29.6005 79.0743 29.6571C79.0743 29.8859 78.9181 29.9999 78.6048 29.9999H73.3586C73.0745 29.9999 72.8745 29.8713 72.7612 29.6142H72.7621ZM62.9959 5.39998V12.7285C62.9959 12.8717 63.0663 12.9428 63.2088 12.9428H68.7957C69.9896 12.9428 70.9639 12.5854 71.7175 11.8714C72.4702 11.1574 72.8471 10.2283 72.8471 9.08569C72.8471 7.94312 72.4702 7.00712 71.7175 6.27855C70.9639 5.54998 69.9896 5.1857 68.7957 5.1857H63.2088C63.0663 5.1857 62.9959 5.25684 62.9959 5.39998Z" fill="#175FFF"/>
<path d="M82.3164 4.67141V0.514284C82.3164 0.371142 82.3662 0.250285 82.4658 0.15C82.5662 0.0505713 82.6864 0 82.828 0H102.49C102.632 0 102.753 0.0505713 102.852 0.15C102.952 0.250285 103.001 0.371999 103.001 0.514284V29.4856C103.001 29.6288 102.952 29.7505 102.852 29.8499C102.753 29.9502 102.632 29.9999 102.49 29.9999H97.4995C97.3579 29.9999 97.2369 29.9502 97.1373 29.8499C97.0377 29.7505 96.988 29.6288 96.988 29.4856V17.6571C96.988 17.5139 96.9176 17.4428 96.7751 17.4428H87.6055C87.4638 17.4428 87.3428 17.3931 87.2433 17.2928C87.1437 17.1934 87.0939 17.0717 87.0939 16.9285V12.7714C87.0939 12.6291 87.1437 12.5074 87.2433 12.4071C87.3428 12.3077 87.4638 12.2571 87.6055 12.2571H96.7751C96.9176 12.2571 96.988 12.186 96.988 12.0428V5.39998C96.988 5.25684 96.9176 5.1857 96.7751 5.1857H82.828C82.6864 5.1857 82.5653 5.13598 82.4658 5.0357C82.367 4.93627 82.3164 4.81456 82.3164 4.67141Z" fill="#175FFF"/>
</svg>
