<svg width="282" height="306" viewBox="0 0 282 306" fill="none" xmlns="http://www.w3.org/2000/svg">
<path d="M198.375 98.8125C198.375 183.919 281.25 227.269 281.25 274.125V277.312C281.25 282.731 277.106 286.875 271.688 286.875H198.375V98.8125Z" fill="url(#paint0_linear_5298_12826)"/>
<path d="M121.875 98.8125C121.875 183.919 39 227.269 39 274.125V277.312C39 282.731 43.1437 286.875 48.5625 286.875H121.875V98.8125Z" fill="url(#paint1_linear_5298_12826)"/>
<path d="M166.819 3.50617C165.544 1.27492 162.994 0 160.444 0C157.894 0 155.344 1.27492 153.751 3.50617C153.751 3.50617 122.194 47.8125 122.194 98.8125V286.875C122.194 290.381 125.063 293.25 128.569 293.25H192.319C195.826 293.25 198.694 290.381 198.694 286.875V98.8125C198.376 47.8125 166.819 3.50617 166.819 3.50617ZM177.976 72.3563C176.701 73.6313 174.788 73.6313 173.513 72.3563C170.007 68.85 165.226 66.9375 160.126 66.9375C155.026 66.9375 150.244 68.85 146.419 72.675C145.782 73.3125 144.826 73.6312 144.188 73.6312C143.232 73.6312 142.594 73.3125 141.957 72.675C140.682 71.4 140.682 69.4876 141.957 68.2126C146.738 63.4313 153.113 60.5625 160.126 60.5625C166.819 60.5625 173.194 63.1125 177.976 67.8937C179.251 69.1687 179.251 71.0813 177.976 72.3563Z" fill="url(#paint2_linear_5298_12826)"/>
<path d="M230.25 306V290.062" stroke="url(#paint3_linear_5298_12826)" stroke-width="3" stroke-miterlimit="10"/>
<path d="M265.312 172.125V105.188" stroke="url(#paint4_linear_5298_12826)" stroke-width="3" stroke-miterlimit="10" stroke-linecap="round"/>
<path d="M233.438 121.125V19.125" stroke="url(#paint5_linear_5298_12826)" stroke-width="3" stroke-miterlimit="10" stroke-linecap="round"/>
<path d="M90 306V290.062" stroke="url(#paint6_linear_5298_12826)" stroke-width="3" stroke-miterlimit="10"/>
<path d="M176.062 306H144.188C140.681 306 137.812 303.131 137.812 299.625V293.25H182.438V299.625C182.438 303.131 179.569 306 176.062 306Z" fill="url(#paint7_linear_5298_12826)"/>
<path d="M61.3125 146.625C94.7602 146.625 121.875 119.51 121.875 86.0625C121.875 52.6148 94.7602 25.5 61.3125 25.5C27.8648 25.5 0.75 52.6148 0.75 86.0625C0.75 119.51 27.8648 146.625 61.3125 146.625Z" fill="url(#paint8_linear_5298_12826)"/>
<path opacity="0.7" d="M160.125 283.688V219.938" stroke="white" stroke-width="3" stroke-miterlimit="10" stroke-linecap="round"/>
<defs>
<linearGradient id="paint0_linear_5298_12826" x1="170.401" y1="181.218" x2="334.615" y2="249.462" gradientUnits="userSpaceOnUse">
<stop stop-color="white" stop-opacity="0"/>
<stop offset="1" stop-color="white"/>
</linearGradient>
<linearGradient id="paint1_linear_5298_12826" x1="149.85" y1="181.218" x2="-3.78549" y2="245.066" gradientUnits="userSpaceOnUse">
<stop stop-color="white" stop-opacity="0"/>
<stop offset="1" stop-color="white"/>
</linearGradient>
<linearGradient id="paint2_linear_5298_12826" x1="160.126" y1="466.92" x2="160.126" y2="-13.0879" gradientUnits="userSpaceOnUse">
<stop stop-color="white" stop-opacity="0"/>
<stop offset="1" stop-color="white"/>
</linearGradient>
<linearGradient id="paint3_linear_5298_12826" x1="-nan" y1="-nan" x2="-nan" y2="-nan" gradientUnits="userSpaceOnUse">
<stop stop-color="white" stop-opacity="0"/>
<stop offset="1" stop-color="white" stop-opacity="0.7"/>
</linearGradient>
<linearGradient id="paint4_linear_5298_12826" x1="-nan" y1="-nan" x2="-nan" y2="-nan" gradientUnits="userSpaceOnUse">
<stop stop-color="white" stop-opacity="0"/>
<stop offset="0.5" stop-color="white" stop-opacity="0.3"/>
<stop offset="1" stop-color="white" stop-opacity="0"/>
</linearGradient>
<linearGradient id="paint5_linear_5298_12826" x1="-nan" y1="-nan" x2="-nan" y2="-nan" gradientUnits="userSpaceOnUse">
<stop stop-color="white" stop-opacity="0"/>
<stop offset="0.5" stop-color="white" stop-opacity="0.3"/>
<stop offset="1" stop-color="white" stop-opacity="0"/>
</linearGradient>
<linearGradient id="paint6_linear_5298_12826" x1="-nan" y1="-nan" x2="-nan" y2="-nan" gradientUnits="userSpaceOnUse">
<stop stop-color="white" stop-opacity="0"/>
<stop offset="1" stop-color="white" stop-opacity="0.7"/>
</linearGradient>
<linearGradient id="paint7_linear_5298_12826" x1="160.125" y1="294.091" x2="160.125" y2="318.192" gradientUnits="userSpaceOnUse">
<stop stop-color="white" stop-opacity="0"/>
<stop offset="1" stop-color="white"/>
</linearGradient>
<linearGradient id="paint8_linear_5298_12826" x1="86.2027" y1="109.902" x2="-116.678" y2="-84.4174" gradientUnits="userSpaceOnUse">
<stop stop-color="white" stop-opacity="0"/>
<stop offset="1" stop-color="white"/>
</linearGradient>
</defs>
</svg>
